<?xml version="1.0" encoding="UTF-8"?>
<svg version="1.1" xmlns="http://www.w3.org/2000/svg" width="280" height="280">
<path d="M0 0 C6.13676476 0.20821166 10.20458113 4.41941088 14.74560547 8.15869141 C17.66999217 10.53755728 20.66149424 12.82837635 23.64501953 15.13232422 C25.97511331 16.93248756 28.29972188 18.73938847 30.62109375 20.55078125 C31.32129639 21.09226807 32.02149902 21.63375488 32.74291992 22.19165039 C34.29902479 23.42841969 35.79206713 24.74407557 37.265625 26.078125 C40.29676565 28.14572425 42.29853961 28.12064196 45.9375 28.125 C52.05953374 28.42971661 56.08118503 29.50181823 60.625 33.6875 C64.61122963 38.69583979 65.75438229 42.45211446 65.73852539 48.73144531 C65.73844986 49.73218079 65.73837433 50.73291626 65.73829651 51.76397705 C65.73313522 52.83702087 65.72797394 53.9100647 65.72265625 55.015625 C65.72053383 56.67183868 65.72053383 56.67183868 65.71836853 58.36151123 C65.71277258 61.88686842 65.70022079 65.41216202 65.6875 68.9375 C65.68248448 71.32812408 65.67792166 73.71874916 65.67382812 76.109375 C65.66280447 81.96877168 65.64607033 87.8281313 65.625 93.6875 C66.52178467 93.67639694 67.41856934 93.66529388 68.3425293 93.65385437 C76.81645248 93.55344211 85.29017428 93.47742852 93.76455688 93.42843914 C98.12080376 93.40240579 102.47655681 93.36712365 106.83251953 93.31030273 C111.04062719 93.25575744 115.24826151 93.22603241 119.45669556 93.21311378 C121.05782517 93.20391405 122.65893047 93.18594898 124.25985718 93.15884972 C139.38415244 92.91314607 139.38415244 92.91314607 145.22583008 97.30574036 C148.68302779 100.71991915 151.40816905 104.62953829 151.75922108 109.58041668 C151.7656313 110.65577285 151.7656313 110.65577285 151.77217102 111.75285339 C151.78290398 112.99119934 151.78290398 112.99119934 151.79385376 114.25456238 C151.79654266 115.1569313 151.79923157 116.05930023 151.80200195 116.98901367 C151.80857315 117.9422049 151.81514435 118.89539612 151.82191467 119.87747192 C151.8416493 123.03680499 151.85331148 126.19609049 151.86328125 129.35546875 C151.86735678 130.434956 151.8714323 131.51444324 151.87563133 132.62664223 C151.89649407 138.34166905 151.91079419 144.05667185 151.92016602 149.77172852 C151.93122294 155.66862091 151.96561432 161.56513518 152.00533772 167.46189404 C152.03151207 172.00102937 152.03985867 176.54007479 152.04344749 181.07927895 C152.04831232 183.25253156 152.0599233 185.42578018 152.07848549 187.59895897 C152.1028908 190.6459464 152.10190895 193.69195796 152.0949707 196.73901367 C152.11418579 198.07738533 152.11418579 198.07738533 152.13378906 199.4427948 C152.07878882 206.09355622 150.55844806 211.34027829 146.11511707 216.41035748 C144.625 217.6875 144.625 217.6875 142.625 217.6875 C142.295 218.3475 141.965 219.0075 141.625 219.6875 C138.346216 220.780428 135.86215589 220.84533872 132.40942383 220.89282227 C131.1283223 220.91276749 129.84722076 220.93271271 128.52729797 220.95326233 C127.12887696 220.9702454 125.73045469 220.98712425 124.33203125 221.00390625 C122.9014171 221.02448166 121.47080895 221.04547829 120.04020691 221.06687927 C116.27719994 221.12203933 112.51413865 221.17147529 108.7510376 221.21972656 C104.91014784 221.26998593 101.06933684 221.32564883 97.22851562 221.38085938 C89.69407713 221.48836673 82.15957309 221.58982811 74.625 221.6875 C74.61098145 222.64789185 74.61098145 222.64789185 74.59667969 223.62768555 C74.54281153 226.54422375 74.45919801 229.45918625 74.375 232.375 C74.36082031 233.38240234 74.34664062 234.38980469 74.33203125 235.42773438 C74.183532 239.9272618 74.0734683 242.91120609 71.79174805 246.86083984 C69.625 248.6875 69.625 248.6875 66.20703125 249.2265625 C62.13310927 248.61347501 60.48286579 247.64576101 57.3125 245.0625 C56.29414063 244.25167969 55.27578125 243.44085938 54.2265625 242.60546875 C53.66356445 242.1470459 53.10056641 241.68862305 52.52050781 241.21630859 C49.58272132 238.84685741 46.58911982 236.55042274 43.6027832 234.24267578 C41.27395127 232.44185052 38.94990689 230.63512334 36.62890625 228.82421875 C35.92934814 228.28265137 35.22979004 227.74108398 34.5090332 227.18310547 C32.94632384 225.94257709 31.44113869 224.62998646 29.953125 223.30078125 C27.07317436 221.30511076 25.28663552 221.22392606 21.8125 221.1875 C14.86333678 220.81140753 10.14362075 219.27240024 5.25 214.25 C-2.04810102 202.74145608 0.59964288 185.84846089 1.0625 172.75 C1.11590662 171.08400579 1.16864457 169.41799 1.22070312 167.75195312 C1.3477936 163.73017935 1.48381741 159.70880271 1.625 155.6875 C0.71933289 155.68972061 -0.18633423 155.69194122 -1.1194458 155.69422913 C-9.65356232 155.7142643 -18.18767094 155.72949063 -26.72180557 155.73931217 C-31.10930637 155.74453125 -35.49678773 155.75161124 -39.88427734 155.76293945 C-44.11825502 155.77380293 -48.352214 155.7797842 -52.58620453 155.78237724 C-54.20173181 155.78422524 -55.81725807 155.78783388 -57.4327774 155.79323006 C-59.6951163 155.80048637 -61.9573779 155.801489 -64.21972656 155.80102539 C-65.50768127 155.803246 -66.79563599 155.80546661 -68.12261963 155.80775452 C-70.76007167 155.71023655 -72.87864726 155.47991856 -75.375 154.6875 C-75.375 154.0275 -75.375 153.3675 -75.375 152.6875 C-76.303125 152.31625 -76.303125 152.31625 -77.25 151.9375 C-79.75318306 150.46503937 -80.20545281 149.27721163 -81.375 146.6875 C-82.035 146.3575 -82.695 146.0275 -83.375 145.6875 C-85.71053964 140.5137515 -85.63819126 135.67559836 -85.57373047 130.12133789 C-85.56917595 128.70311485 -85.56917595 128.70311485 -85.56452942 127.25624084 C-85.55128118 124.14070892 -85.5226234 121.0255646 -85.4921875 117.91015625 C-85.47615933 115.73831928 -85.4604681 113.5664798 -85.44509888 111.39463806 C-85.41014139 106.84608419 -85.36678552 102.29769703 -85.31835938 97.74926758 C-85.25766145 91.92765508 -85.22440433 86.10624341 -85.19830132 80.28438663 C-85.17402728 75.80004398 -85.13181375 71.31600034 -85.08456802 66.83184624 C-85.06474038 64.68575342 -85.05123986 62.53959228 -85.04424667 60.39341927 C-85.03242838 57.38943699 -84.99560455 54.38673329 -84.95263672 51.38305664 C-84.95452499 50.50127747 -84.95641327 49.61949829 -84.95835876 48.71099854 C-84.82537924 42.17770708 -83.28866751 37.86475112 -78.77734375 32.9453125 C-74.01409556 29.2617339 -71.00381893 28.56249261 -65.06762695 28.57397461 C-63.76650467 28.57405014 -62.46538239 28.57412567 -61.12483215 28.57420349 C-59.7043148 28.57931015 -58.28379783 28.58452615 -56.86328125 28.58984375 C-55.41025338 28.59170909 -53.95722489 28.59313244 -52.50419617 28.59413147 C-48.68193828 28.59794754 -44.85971845 28.60777007 -41.03747559 28.61883545 C-37.13631709 28.62906913 -33.23515243 28.63363329 -29.33398438 28.63867188 C-21.68097224 28.64939314 -14.02799146 28.66645865 -6.375 28.6875 C-6.47039062 27.39714844 -6.56578125 26.10679688 -6.6640625 24.77734375 C-6.7766793 23.05993753 -6.8886228 21.34248706 -7 19.625 C-7.06445312 18.77744141 -7.12890625 17.92988281 -7.1953125 17.05664062 C-7.5221802 11.76546969 -7.27650505 7.66116458 -5.375 2.6875 C-3.375 0.6875 -3.375 0.6875 0 0 Z M5.625 17.6875 C5.295 24.9475 4.965 32.2075 4.625 39.6875 C2.43456055 39.6968457 0.24412109 39.70619141 -2.01269531 39.71582031 C-9.24923662 39.74958482 -16.48549258 39.80513058 -23.72180557 39.87140274 C-28.1093114 39.91091522 -32.49661541 39.94308503 -36.88427734 39.95849609 C-41.11852024 39.9736381 -45.35220841 40.00803919 -49.58620453 40.05580902 C-51.20167978 40.07064833 -52.81723422 40.07854248 -54.4327774 40.07938385 C-56.69569565 40.08174774 -58.95707361 40.10877705 -61.21972656 40.14160156 C-63.15165863 40.15492523 -63.15165863 40.15492523 -65.12261963 40.16851807 C-68.37156634 40.47603909 -68.37156634 40.47603909 -70.78886414 42.15888977 C-73.15886703 45.93713708 -72.94180565 49.31179249 -72.90844727 53.69116211 C-72.91706284 54.60055038 -72.92567841 55.50993866 -72.93455505 56.44688416 C-72.95725887 59.45316018 -72.95046774 62.45850732 -72.94140625 65.46484375 C-72.9466401 67.55465472 -72.9529157 69.64446332 -72.96018982 71.73426819 C-72.97060237 76.11486931 -72.96602051 80.49514577 -72.95141602 84.87573242 C-72.9342324 90.48948684 -72.95771423 96.10221737 -72.99290562 101.71585751 C-73.01486721 106.03189375 -73.013441 110.34768458 -73.0051403 114.66375923 C-73.00432001 116.73341558 -73.01119836 118.8030898 -73.02591133 120.87269402 C-73.04333283 123.76725025 -73.02883425 126.65996135 -73.00610352 129.55444336 C-73.01779572 130.40915222 -73.02948792 131.26386108 -73.04153442 132.14447021 C-72.97787854 136.12875094 -72.63911966 138.25331132 -70.53160095 141.71788025 C-65.83473441 144.6485773 -61.67487692 144.38643886 -56.23828125 144.33447266 C-55.1141684 144.34323425 -53.99005554 144.35199585 -52.83187866 144.36102295 C-49.11669296 144.38302653 -45.40269778 144.36845925 -41.6875 144.3515625 C-39.10587333 144.35493032 -36.5242482 144.35978264 -33.94262695 144.36605835 C-28.53222089 144.37343107 -23.12226212 144.36318789 -17.71191406 144.33935547 C-11.46265316 144.31214502 -5.21420792 144.32095978 1.03503323 144.3484875 C7.05420105 144.3739374 13.07297076 144.37121106 19.0921936 144.35657883 C21.65027989 144.35324172 24.20838697 144.3573425 26.76644897 144.36897659 C30.3409552 144.38166548 33.91389202 144.36233228 37.48828125 144.33447266 C38.54713531 144.34459381 39.60598938 144.35471497 40.69692993 144.36514282 C45.23159255 144.29961504 47.8820897 144.15263638 51.78160095 141.71115112 C54.29850872 137.58277154 54.32196157 134.41486594 54.25610352 129.66210938 C54.26325882 128.76232864 54.27041412 127.86254791 54.27778625 126.9355011 C54.29466868 123.96689793 54.27527325 120.99980588 54.25390625 118.03125 C54.25473499 115.96529007 54.25719456 113.89933021 54.26121521 111.83337402 C54.26407291 107.50573861 54.24937444 103.17862083 54.22192383 98.85107422 C54.18784142 93.30581535 54.1938597 87.76148207 54.2125864 82.21617889 C54.22315853 77.95074764 54.21421656 73.6855315 54.19920158 69.42012024 C54.1940209 67.37560159 54.19450019 65.33106047 54.20074654 63.2865448 C54.20620121 60.42816926 54.18581531 57.57111553 54.15844727 54.71289062 C54.16497314 53.86910355 54.17149902 53.02531647 54.17822266 52.15596008 C54.11341224 48.17210684 53.89242455 46.12867161 51.78111267 42.64562988 C49.73056857 40.40205794 49.73056857 40.40205794 46.59375 40.33203125 C45.4490625 40.38746094 44.304375 40.44289063 43.125 40.5 C34.08519555 40.19929964 29.77385792 35.57642078 23.625 29.6875 C22.22978508 28.57667558 20.81573164 27.48861745 19.375 26.4375 C17.37655123 24.97420069 15.39026073 23.50622448 13.4296875 21.9921875 C12.35074219 21.16074219 12.35074219 21.16074219 11.25 20.3125 C10.27933594 19.55839844 10.27933594 19.55839844 9.2890625 18.7890625 C7.6796543 17.50350433 7.6796543 17.50350433 5.625 17.6875 Z M65.625 105.6875 C65.295 112.9475 64.965 120.2075 64.625 127.6875 C69.44544922 127.76097656 69.44544922 127.76097656 74.36328125 127.8359375 C77.47099521 127.88992602 80.57863119 127.9472419 83.6862793 128.00488281 C85.84832973 128.04319804 88.01044447 128.0780464 90.17260742 128.109375 C93.27806604 128.15497017 96.38308099 128.21297384 99.48828125 128.2734375 C100.45711746 128.28498871 101.42595367 128.29653992 102.42414856 128.30844116 C103.77520943 128.3382457 103.77520943 128.3382457 105.15356445 128.36865234 C105.94632278 128.38197601 106.73908112 128.39529968 107.55586243 128.4090271 C109.625 128.6875 109.625 128.6875 112.625 130.6875 C113.5 132.5 113.5 132.5 113.625 134.6875 C112.375 137.375 112.375 137.375 110.625 139.6875 C107.84438025 140.61437325 106.20448141 140.80943396 103.3371582 140.80102539 C102.47649246 140.80094986 101.61582672 140.80087433 100.7290802 140.80079651 C99.80399155 140.79563522 98.87890289 140.79047394 97.92578125 140.78515625 C96.97559616 140.7837413 96.02541107 140.78232635 95.0464325 140.78086853 C92.01008971 140.77526875 88.97382052 140.76271632 85.9375 140.75 C83.87955836 140.74498497 81.82161556 140.74042207 79.76367188 140.73632812 C74.71741954 140.7252994 69.67122225 140.70803493 64.625 140.6875 C62.645 145.6375 62.645 145.6375 60.625 150.6875 C62.1291748 150.70731934 63.63334961 150.72713867 65.18310547 150.74755859 C70.74805845 150.82346045 76.31274465 150.91220117 81.87744141 151.00488281 C84.28884628 151.04323647 86.70030962 151.0780779 89.11181641 151.109375 C92.57215313 151.15488703 96.03208508 151.21290404 99.4921875 151.2734375 C101.11723709 151.29076431 101.11723709 151.29076431 102.77511597 151.30844116 C103.7760025 151.32831085 104.77688904 151.34818054 105.80810547 151.36865234 C106.69190887 151.38197601 107.57571228 151.39529968 108.48629761 151.4090271 C110.625 151.6875 110.625 151.6875 112.625 153.6875 C112.9375 157.1875 112.9375 157.1875 112.625 160.6875 C109.02144886 163.08986743 107.37570448 162.94559643 103.08984375 162.9621582 C102.43098175 162.96726913 101.77211975 162.97238007 101.09329224 162.97764587 C98.91626901 162.9915417 96.73956229 162.99058539 94.5625 162.98828125 C93.04939659 162.99216779 91.53629426 162.99650237 90.02319336 163.00126648 C86.85234031 163.00872835 83.68159862 163.00843739 80.51074219 163.00317383 C76.44506966 162.99737474 72.37985204 163.01432055 68.31425476 163.0375185 C65.18987356 163.05224048 62.06560236 163.05312974 58.94119263 163.05000877 C57.44205829 163.05052262 55.94291789 163.0557722 54.44381714 163.06582069 C52.34896133 163.0781406 50.25499748 163.07142169 48.16015625 163.05981445 C46.37170288 163.06075859 46.37170288 163.06075859 44.54711914 163.0617218 C41.625 162.6875 41.625 162.6875 39.77905273 161.41423035 C38.625 159.6875 38.625 159.6875 37.625 155.6875 C29.705 155.6875 21.785 155.6875 13.625 155.6875 C13.53312622 162.43256701 13.45349818 169.1754599 13.40527344 175.9206543 C13.38516894 178.21467448 13.35788109 180.50864348 13.32324219 182.80249023 C13.27467441 186.10152826 13.25201923 189.39988822 13.234375 192.69921875 C13.21372986 193.72335373 13.19308472 194.74748871 13.17181396 195.80265808 C13.17041228 200.25939207 13.19131755 202.93995248 15.4621582 206.85424805 C18.43639374 209.37524756 20.22039678 209.03055353 24.0625 208.8125 C32.78928387 209.12868782 37.04406018 213.44733751 42.9765625 219.15917969 C45.73186 221.7137061 48.69945895 223.97672036 51.6875 226.25 C52.73035156 227.05566406 53.77320313 227.86132812 54.84765625 228.69140625 C57.09444599 230.30618763 59.15046272 231.50166707 61.625 232.6875 C61.61976318 232.0262915 61.61452637 231.36508301 61.60913086 230.68383789 C61.58842344 227.70590149 61.57535988 224.72798018 61.5625 221.75 C61.55412109 220.70908203 61.54574219 219.66816406 61.53710938 218.59570312 C61.53388672 217.60634766 61.53066406 216.61699219 61.52734375 215.59765625 C61.52210693 214.68121338 61.51687012 213.76477051 61.51147461 212.82055664 C61.625 210.6875 61.625 210.6875 62.625 209.6875 C64.87870675 209.57916322 67.13580949 209.5411856 69.39208984 209.52978516 C70.09942764 209.52470444 70.80676544 209.51962372 71.53553772 209.51438904 C73.07645796 209.50366367 74.617394 209.49505204 76.15833664 209.48826981 C78.59568269 209.4765155 81.03284874 209.45707193 83.47012329 209.43515015 C90.40157095 209.37341718 97.33300155 209.31946501 104.26464844 209.28613281 C108.49994273 209.26521447 112.73491162 209.22993251 116.97002029 209.18537521 C118.58633219 209.17118985 120.20270168 209.16248706 121.81907272 209.15932083 C124.07943623 209.15442478 126.33893301 209.13130183 128.59912109 209.10400391 C129.88628021 209.09591705 131.17343933 209.0878302 132.49960327 209.07949829 C135.59160991 208.95299019 135.59160991 208.95299019 137.50161743 207.28646851 C140.24784598 203.37761939 139.78767749 199.50572761 139.80200195 194.89501953 C139.80857315 193.98431702 139.81514435 193.0736145 139.82191467 192.13531494 C139.8416685 189.11364669 139.85331389 186.09202814 139.86328125 183.0703125 C139.86735678 182.04007839 139.8714323 181.00984428 139.87563133 179.94839096 C139.89649932 174.49733428 139.91079882 169.04630285 139.92016602 163.59521484 C139.93124197 157.95684415 139.96565359 152.31886686 140.00533772 146.68063545 C140.03144322 142.35182953 140.03985237 138.02311829 140.04344749 133.69424057 C140.04832787 131.61536878 140.05998285 129.53650162 140.07848549 127.45770645 C140.10275158 124.55107387 140.10193503 121.64547172 140.0949707 118.73876953 C140.10778076 117.8773233 140.12059082 117.01587708 140.13378906 116.12832642 C140.10160024 112.44979011 140.01634979 110.30835341 138.02561951 107.150177 C134.78216038 105.17396501 132.53665314 105.2061212 128.74511719 105.23339844 C128.06178314 105.23281433 127.3784491 105.23223022 126.67440796 105.23162842 C124.42304101 105.234408 122.17300968 105.26549092 119.921875 105.296875 C118.358182 105.30433791 116.79447963 105.31003061 115.23077393 105.31402588 C111.12058567 105.32927846 107.01096529 105.3685564 102.90100098 105.4128418 C98.70491213 105.45380299 94.50873127 105.47203867 90.3125 105.4921875 C82.08304404 105.53505173 73.85415814 105.60539788 65.625 105.6875 Z " fill="#7EA209" transform="translate(108.375,9.3125)"/>
<path d="M0 0 C9.37978532 -0.09290462 18.75941091 -0.1638683 28.13955688 -0.20724869 C32.49571041 -0.22807492 36.85154787 -0.25630099 41.20751953 -0.30175781 C45.41560957 -0.34539387 49.62339663 -0.3691744 53.83169556 -0.37950897 C55.43279791 -0.38686863 57.0338847 -0.4012402 58.63485718 -0.42292023 C69.50015316 -0.56413106 77.72947643 -0.02727288 86 8 C88.56055812 12.67101184 88.29577489 17.34582239 88.29052734 22.52856445 C88.29724457 23.48204773 88.30396179 24.43553101 88.31088257 25.41790771 C88.32986237 28.56641875 88.33378687 31.71471658 88.3359375 34.86328125 C88.34236575 37.05657539 88.34909413 39.24986867 88.35610962 41.44316101 C88.36808257 46.0404967 88.37179045 50.63775724 88.37060547 55.23510742 C88.37040235 61.11627713 88.39769705 66.99696322 88.43214989 72.87801838 C88.45442545 77.40858661 88.45844279 81.93903861 88.45738602 86.46965599 C88.45974126 88.63731743 88.46856044 90.80498212 88.48405075 92.97258949 C88.50372219 96.00981792 88.49786759 99.04600553 88.48583984 102.08325195 C88.49707886 102.97235764 88.50831787 103.86146332 88.51989746 104.7775116 C88.45335911 111.41449213 86.92390544 116.66328985 82.49017906 121.72298145 C81 123 81 123 79 123 C78.67 123.66 78.34 124.32 78 125 C74.721216 126.092928 72.23715589 126.15783872 68.78442383 126.20532227 C66.86277153 126.2352401 66.86277153 126.2352401 64.90229797 126.26576233 C63.50387696 126.2827454 62.10545469 126.29962425 60.70703125 126.31640625 C59.2764171 126.33698166 57.84580895 126.35797829 56.41520691 126.37937927 C52.65219994 126.43453933 48.88913865 126.48397529 45.1260376 126.53222656 C41.28514784 126.58248593 37.44433684 126.63814883 33.60351562 126.69335938 C26.06907713 126.80086673 18.53457309 126.90232811 11 127 C10.9906543 127.64026123 10.98130859 128.28052246 10.97167969 128.94018555 C10.91781153 131.85672375 10.83419801 134.77168625 10.75 137.6875 C10.73582031 138.69490234 10.72164063 139.70230469 10.70703125 140.74023438 C10.558532 145.2397618 10.4484683 148.22370609 8.16674805 152.17333984 C6 154 6 154 2.58203125 154.5390625 C-1.49189073 153.92597501 -3.14213421 152.95826101 -6.3125 150.375 C-7.33085937 149.56417969 -8.34921875 148.75335938 -9.3984375 147.91796875 C-9.96143555 147.4595459 -10.52443359 147.00112305 -11.10449219 146.52880859 C-14.04227868 144.15935741 -17.03588018 141.86292274 -20.0222168 139.55517578 C-22.35104873 137.75435052 -24.67509311 135.94762334 -26.99609375 134.13671875 C-27.69565186 133.59515137 -28.39520996 133.05358398 -29.1159668 132.49560547 C-30.67867616 131.25507709 -32.18386131 129.94248646 -33.671875 128.61328125 C-36.55182564 126.61761076 -38.33836448 126.53642606 -41.8125 126.5 C-48.55994734 126.1348245 -53.39708173 124.78002874 -58.07904053 119.77949524 C-60.29921692 116.56705385 -60.48829896 115.05570797 -60.45410156 111.19995117 C-60.45379944 110.05914597 -60.45349731 108.91834076 -60.45318604 107.7429657 C-60.42221832 105.91146721 -60.42221832 105.91146721 -60.390625 104.04296875 C-60.38496521 102.78486893 -60.37930542 101.5267691 -60.37347412 100.23054504 C-60.35490044 96.89777215 -60.31901116 93.56610784 -60.2746582 90.23364258 C-60.23362121 86.82838485 -60.21544527 83.42301225 -60.1953125 80.01757812 C-60.1512313 73.34474707 -60.08430697 66.6724375 -60 60 C-57.03 60 -54.06 60 -51 60 C-50.99635437 60.61974197 -50.99270874 61.23948395 -50.98895264 61.87800598 C-50.9471989 68.31822445 -50.87790393 74.7577255 -50.79248047 81.19750977 C-50.76422413 83.60205923 -50.74303294 86.00670239 -50.72900391 88.41137695 C-50.70763945 91.86458468 -50.66102094 95.3166603 -50.609375 98.76953125 C-50.60814636 99.84773636 -50.60691772 100.92594147 -50.60565186 102.03681946 C-50.57607391 103.53803596 -50.57607391 103.53803596 -50.54589844 105.06958008 C-50.53701599 105.95116287 -50.52813354 106.83274567 -50.51898193 107.74104309 C-50.18036737 110.14929764 -50.18036737 110.14929764 -48.15313721 111.80033875 C-45.18575384 113.4536727 -42.93641848 113.12254868 -39.5625 113 C-30.88216549 113.44030682 -26.56622561 117.77649917 -20.65283203 123.47167969 C-17.88133486 126.03439346 -14.88543255 128.29019626 -11.875 130.5625 C-11.33029053 130.97943115 -10.78558105 131.3963623 -10.22436523 131.82592773 C-7.85835791 133.63025606 -5.47695841 135.3486944 -3 137 C-3 129.74 -3 122.48 -3 115 C-0.06923654 113.53461827 2.89701357 113.82133424 6.11181641 113.79467773 C6.84362625 113.78477814 7.5754361 113.77487854 8.329422 113.76467896 C10.75343568 113.73303801 13.17746898 113.70829634 15.6015625 113.68359375 C17.28022782 113.66302646 18.95888793 113.64203005 20.63754272 113.62062073 C25.05981231 113.56537682 29.48212881 113.51597779 33.90447998 113.46777344 C38.41552922 113.41757533 42.92651018 113.36188045 47.4375 113.30664062 C56.29160836 113.1990307 65.14577596 113.09759203 74 113 C74.77035954 110.25844736 75.12809949 107.81526266 75.14044189 104.9705658 C75.14615204 104.17847214 75.15186218 103.38637848 75.15774536 102.57028198 C75.15886322 101.7104068 75.15998108 100.85053162 75.16113281 99.96459961 C75.16609772 99.05199875 75.17106262 98.13939789 75.17617798 97.19914246 C75.19077136 94.18353521 75.19759524 91.16798049 75.203125 88.15234375 C75.2088767 86.05774433 75.21463443 83.96314492 75.22039795 81.86854553 C75.23089844 77.47966262 75.23674803 73.090798 75.24023438 68.7019043 C75.24573151 63.07029083 75.26978954 57.43891763 75.29820633 51.80737972 C75.31679681 47.48290796 75.32203629 43.15849464 75.32357025 38.83398628 C75.32660305 36.75709271 75.33465256 34.68020032 75.34775543 32.60334587 C75.3647485 29.70404389 75.36295278 26.80533698 75.35644531 23.90600586 C75.37026749 22.61315674 75.37026749 22.61315674 75.3843689 21.29418945 C75.54207956 16.95911833 75.54207956 16.95911833 73.47703171 13.38109684 C72.74590101 12.6974539 72.74590101 12.6974539 72 12 C72 11.34 72 10.68 72 10 C48.24 10 24.48 10 0 10 C0 6.7 0 3.4 0 0 Z " fill="#C77B06" transform="translate(172,104)"/>
<path d="M0 0 C0.68368652 0.01256836 1.36737305 0.02513672 2.07177734 0.03808594 C9.82979347 0.22944903 16.28643641 0.96147335 23 5 C23.69738281 5.41121094 24.39476562 5.82242188 25.11328125 6.24609375 C31.19080272 10.2863293 35.67935681 16.07601249 37.58984375 23.19921875 C37.875 25.125 37.875 25.125 38 28 C40.9296875 27.21875 40.9296875 27.21875 43.859375 26.4375 C46 26 46 26 50 26 C49.41098397 29.67818675 48.39325878 32.52293739 46.63671875 35.80078125 C45.92418945 37.14366211 45.92418945 37.14366211 45.19726562 38.51367188 C44.69904297 39.43728516 44.20082031 40.36089844 43.6875 41.3125 C42.71156622 43.14156795 41.73629574 44.97099 40.76171875 46.80078125 C40.29427246 47.67557129 39.82682617 48.55036133 39.34521484 49.45166016 C37.50405391 52.93950732 35.74548741 56.46341862 34 60 C32.68 60 31.36 60 30 60 C29.5153125 59.01902344 29.030625 58.03804687 28.53125 57.02734375 C27.85467359 55.66381085 27.17754789 54.30055042 26.5 52.9375 C26.14486328 52.22247314 25.78972656 51.50744629 25.42382812 50.77075195 C22.55879928 45.03754727 19.56252208 39.38380166 16.43945312 33.78686523 C14.89611615 30.96453043 14 29.27251888 14 26 C17.63 26.33 21.26 26.66 25 27 C25 25.68 25 24.36 25 23 C24.34 22.67 23.68 22.34 23 22 C21.8215768 20.50308404 20.64452148 19.00438618 19.51171875 17.47265625 C16.41916994 14.46001826 13.47941054 14.02038987 9.234375 13.83984375 C7.73943212 13.86449216 6.2446134 13.89759337 4.75 13.9375 C-3.32236862 14.0388773 -11.36945235 13.91113833 -19.4375 13.625 C-21.06316895 13.5784729 -21.06316895 13.5784729 -22.72167969 13.53100586 C-24.24970215 13.4731189 -24.24970215 13.4731189 -25.80859375 13.4140625 C-26.71407959 13.3826416 -27.61956543 13.3512207 -28.55249023 13.31884766 C-31.0992764 12.98706683 -32.79320069 12.28298546 -35 11 C-35.36627195 4.52919559 -35.36627195 4.52919559 -33.83203125 2.3125 C-26.3595835 -3.04089541 -9.13093041 -0.18390989 0 0 Z " fill="#89B007" transform="translate(212,39)"/>
<path d="M0 0 C2.97392039 2.58518732 4.51117819 5.55029214 6.3203125 9.0234375 C6.62444061 9.6066275 6.92856873 10.1898175 7.24191284 10.79067993 C7.88170535 12.02142662 8.51862236 13.25367186 9.15283203 14.48730469 C10.12039796 16.36606405 11.10052373 18.23786893 12.08203125 20.109375 C12.70389477 21.30949728 13.32501341 22.51000588 13.9453125 23.7109375 C14.50750488 24.79681152 15.06969727 25.88268555 15.64892578 27.00146484 C16.87614648 29.72512306 17.56847329 32.05839215 18 35 C10.57142857 34 10.57142857 34 7 33 C8.89794435 38.09448221 10.63294203 41.52620389 15 45 C20.70982769 47.09078099 25.97805295 47.30825393 32.01953125 47.34375 C32.9593132 47.3583728 33.89909515 47.37299561 34.86735535 47.38806152 C38.86545658 47.4500782 42.86370297 47.4901254 46.86206055 47.53173828 C49.78971865 47.56535959 52.71704227 47.61046586 55.64453125 47.65625 C57.00696709 47.66416565 57.00696709 47.66416565 58.39692688 47.67224121 C59.65414803 47.69236267 59.65414803 47.69236267 60.93676758 47.71289062 C62.04427116 47.72382751 62.04427116 47.72382751 63.17414856 47.73498535 C65 48 65 48 67 50 C67.3125 53.5 67.3125 53.5 67 57 C55.87067311 64.41955126 29.22043006 61.0179706 16.4921875 58.62109375 C10.29610179 57.07692819 5.35506242 53.62564322 1 49 C1 48.34 1 47.68 1 47 C0.34 47 -0.32 47 -1 47 C-2.65 42.38 -4.3 37.76 -6 33 C-7.85625 33.495 -7.85625 33.495 -9.75 34 C-12.74591845 34.79891159 -14.80107719 35 -18 35 C-16.69068735 30.76352551 -15.06975321 26.96734186 -12.99609375 23.05078125 C-12.13274414 21.40819336 -12.13274414 21.40819336 -11.25195312 19.73242188 C-10.35379883 18.03956055 -10.35379883 18.03956055 -9.4375 16.3125 C-8.24674825 14.05962316 -7.05785579 11.80576232 -5.87109375 9.55078125 C-5.34443115 8.55731689 -4.81776855 7.56385254 -4.27514648 6.5402832 C-2.91336138 3.9783846 -2.91336138 3.9783846 -2 1 C-1.34 0.67 -0.68 0.34 0 0 Z " fill="#C47908" transform="translate(38,169)"/>
<path d="M0 0 C1.26496307 -0.00960754 2.52992615 -0.01921509 3.83322144 -0.02911377 C5.21579813 -0.03396169 6.59837693 -0.03824053 7.98095703 -0.04199219 C9.39958701 -0.04774609 10.81821697 -0.0535038 12.23684692 -0.05926514 C15.21096152 -0.06976608 18.18504916 -0.07561471 21.15917969 -0.07910156 C24.96456243 -0.08458541 28.7695872 -0.10861451 32.57485771 -0.13707352 C35.50543246 -0.15572433 38.43592137 -0.16090678 41.36655045 -0.16243744 C42.76914553 -0.16545884 44.1717393 -0.17347011 45.57427597 -0.18662262 C47.53902828 -0.20373273 49.50392866 -0.19995088 51.46875 -0.1953125 C52.58555145 -0.19895813 53.70235291 -0.20260376 54.85299683 -0.20635986 C58.26930667 0.21063237 60.14017115 1.08149177 62.86376953 3.16113281 C63.98876953 6.03613281 63.98876953 6.03613281 63.86376953 9.16113281 C61.81489463 12.17745475 60.15180816 13.89915829 56.50177002 14.64154053 C53.50140015 14.85486483 50.53584224 14.9055683 47.52783203 14.90332031 C46.41628754 14.92081329 45.30474304 14.93830627 44.15951538 14.95632935 C40.60245037 15.00585625 37.04612801 15.02071422 33.48876953 15.03613281 C31.13327133 15.06787196 28.77780035 15.10170447 26.42236328 15.13769531 C-7.50551927 15.57946306 -7.50551927 15.57946306 -12.13623047 11.16113281 C-13.13623047 8.78613281 -13.13623047 8.78613281 -13.13623047 6.16113281 C-9.5226282 0.48261497 -6.43160967 0.03937827 0 0 Z " fill="#83AB07" transform="translate(74.13623046875,71.8388671875)"/>
<path d="M0 0 C0.64779419 -0.00525696 1.29558838 -0.01051392 1.9630127 -0.01593018 C4.09204628 -0.02907265 6.22032481 -0.02041435 8.34936523 -0.01025391 C9.83479454 -0.01227607 11.32022288 -0.01518869 12.8056488 -0.01895142 C15.91333502 -0.02336673 19.02076196 -0.01696859 22.12841797 -0.00292969 C26.10877097 0.01417697 30.08851774 0.00430712 34.06884861 -0.01364708 C37.13409484 -0.02449379 40.19919759 -0.02103483 43.26444817 -0.0132637 C44.73204559 -0.01126491 46.19965611 -0.01370972 47.66723824 -0.02070236 C49.7186136 -0.02833348 51.76900995 -0.01669181 53.8203125 0 C55.569739 0.00358017 55.569739 0.00358017 57.35450745 0.00723267 C60.65013667 0.42698972 62.06092867 0.99790413 64.34545898 3.38818359 C65.09092646 9.35192343 65.09092646 9.35192343 63.1394043 12.06469727 C55.45477532 17.73404589 36.11726232 14.5741664 26.92407227 14.57348633 C23.58914701 14.57568776 20.2545454 14.59394223 16.91967773 14.61279297 C14.7751476 14.61572517 12.63061592 14.61771112 10.48608398 14.61865234 C9.50150208 14.62583786 8.51692017 14.63302338 7.50250244 14.64042664 C1.48233079 14.62068847 -3.82268327 13.89930103 -9.65454102 12.38818359 C-9.65454102 11.72818359 -9.65454102 11.06818359 -9.65454102 10.38818359 C-10.31454102 10.38818359 -10.97454102 10.38818359 -11.65454102 10.38818359 C-11.96704102 7.07568359 -11.96704102 7.07568359 -11.65454102 3.38818359 C-7.86890415 0.3177271 -4.77894833 0.00977336 0 0 Z " fill="#AD6F0C" transform="translate(157.654541015625,181.61181640625)"/>
<path d="M0 0 C1.00051392 -0.01270432 1.00051392 -0.01270432 2.02124023 -0.02566528 C4.22602406 -0.04906334 6.43011117 -0.05005685 8.63500977 -0.04882812 C10.16813944 -0.05592817 11.70126646 -0.06362694 13.23439026 -0.07189941 C16.44816473 -0.08535069 19.66169353 -0.08691025 22.87548828 -0.08105469 C26.99292074 -0.07515841 31.10917409 -0.10574231 35.22637844 -0.14617157 C38.39287155 -0.1720288 41.55908001 -0.17492785 44.72566414 -0.17127991 C46.24353054 -0.17297311 47.7614098 -0.18263502 49.2791729 -0.20042419 C51.40306214 -0.22257746 53.52455605 -0.21293529 55.6484375 -0.1953125 C56.85628403 -0.19736694 58.06413055 -0.19942139 59.30857849 -0.20153809 C62.38891602 0.41992188 62.38891602 0.41992188 64.81410217 2.75915527 C66.38891602 5.41992188 66.38891602 5.41992188 66.32641602 8.60742188 C65.38891602 11.41992188 65.38891602 11.41992188 62.38891602 13.41992188 C59.42883301 13.68061829 59.42883301 13.68061829 55.76196289 13.69458008 C54.75903954 13.70224648 54.75903954 13.70224648 53.7358551 13.71006775 C51.52636763 13.72396479 49.31719199 13.72300717 47.10766602 13.72070312 C45.57214237 13.7245896 44.0366198 13.72892416 42.50109863 13.73368835 C39.28316766 13.74115049 36.06534641 13.74085907 32.84741211 13.7355957 C28.72120802 13.72979661 24.59545216 13.74674232 20.4693222 13.76994038 C17.29861826 13.78466177 14.12802271 13.78555169 10.95729065 13.78243065 C9.43582775 13.78294452 7.91435888 13.78819466 6.39292908 13.79824257 C4.26694462 13.81056129 2.14183922 13.8038442 0.01586914 13.79223633 C-1.79923157 13.79318047 -1.79923157 13.79318047 -3.65100098 13.79414368 C-6.61108398 13.41992188 -6.61108398 13.41992188 -8.50183105 12.11540222 C-10.37563645 9.25131222 -9.96513491 6.72439717 -9.61108398 3.41992188 C-7.15013286 -0.33165793 -4.22661307 0.02948066 0 0 Z " fill="#7EA708" transform="translate(71.611083984375,94.580078125)"/>
<path d="M0 0 C0.66846954 -0.00511093 1.33693909 -0.01022186 2.02566528 -0.01548767 C4.24058935 -0.02941452 6.45520331 -0.0284246 8.67016602 -0.02612305 C10.2071189 -0.03000841 11.74407071 -0.03434275 13.28102112 -0.03910828 C16.50492836 -0.04657722 19.72872612 -0.04627447 22.95263672 -0.04101562 C27.0867165 -0.03522133 31.22034822 -0.05214738 35.3543539 -0.0753603 C38.52934902 -0.09008358 41.7042359 -0.09097126 44.87925911 -0.08785057 C46.40351308 -0.08836454 47.92777299 -0.09361641 49.45199394 -0.10366249 C51.58287638 -0.11598233 53.71288189 -0.10926298 55.84375 -0.09765625 C57.05683334 -0.09828568 58.26991669 -0.0989151 59.51976013 -0.0995636 C62.48657227 0.2746582 62.48657227 0.2746582 64.33924866 1.64949036 C65.98505659 3.98075428 66.48657227 5.39962579 66.48657227 8.2746582 C63.9454188 11.48003558 62.43112411 13.09086594 58.36190796 13.88265991 C57.19181183 13.87457306 56.0217157 13.86648621 54.81616211 13.8581543 C54.16676163 13.86049072 53.51736115 13.86282715 52.84828186 13.86523438 C50.71385748 13.86684197 48.5816253 13.8328975 46.44750977 13.7980957 C44.95969421 13.79130205 43.47186786 13.7865824 41.98403931 13.78384399 C38.07543523 13.77045532 34.16774426 13.72619013 30.25946045 13.67626953 C27.06668077 13.64083664 23.87399262 13.62778431 20.68105125 13.61585045 C16.87398017 13.60106311 13.06700586 13.5758518 9.26000977 13.5480957 C8.53369732 13.54318493 7.80738487 13.53827415 7.05906296 13.53321457 C5.00533279 13.51693347 2.95182082 13.49352965 0.89819336 13.4675293 C-0.27031158 13.45466888 -1.43881653 13.44180847 -2.64273071 13.42855835 C-5.51342773 13.2746582 -5.51342773 13.2746582 -8.51342773 12.2746582 C-9.82592773 10.0246582 -9.82592773 10.0246582 -10.51342773 7.2746582 C-8.71993585 0.84797893 -6.40154555 0.02432956 0 0 Z " fill="#7FA708" transform="translate(71.513427734375,117.725341796875)"/>
<path d="M0 0 C1.60658981 -0.01429802 1.60658981 -0.01429802 3.24563599 -0.02888489 C4.39160248 -0.02797348 5.53756897 -0.02706207 6.71826172 -0.02612305 C8.49485672 -0.03255074 8.49485672 -0.03255074 10.30734253 -0.03910828 C12.80710206 -0.04484436 15.30687828 -0.04535717 17.80664062 -0.04101562 C21.64074913 -0.03784775 25.47409189 -0.06135236 29.30810547 -0.08666992 C31.73648991 -0.0889421 34.16487643 -0.08964679 36.59326172 -0.08862305 C37.74327667 -0.09783279 38.89329163 -0.10704254 40.07815552 -0.11653137 C41.14291107 -0.11030258 42.20766663 -0.10407379 43.3046875 -0.09765625 C44.24224884 -0.09828568 45.17981018 -0.0989151 46.14578247 -0.0995636 C48.9622768 0.34381867 49.85925347 0.99268708 51.52294922 3.2746582 C51.83544922 5.8371582 51.83544922 5.8371582 51.52294922 8.2746582 C48.711478 11.08612942 46.93187753 10.52829098 42.99365234 10.53344727 C42.32357651 10.5369519 41.65350067 10.54045654 40.96311951 10.54406738 C38.7433747 10.55288552 36.52394739 10.54703544 34.30419922 10.5402832 C32.76485126 10.54162983 31.22550372 10.54357035 29.68615723 10.54608154 C26.45804805 10.54903291 23.23004946 10.54473482 20.00195312 10.53540039 C15.85889128 10.52400578 11.71608853 10.53056519 7.57303619 10.54254532 C4.39379922 10.54976362 1.21462394 10.54747615 -1.96461487 10.54228973 C-3.49247773 10.54095315 -5.02034614 10.54260126 -6.54820251 10.54724884 C-8.68153778 10.55231367 -10.81445023 10.5446049 -12.94775391 10.53344727 C-14.16305786 10.53185608 -15.37836182 10.53026489 -16.63049316 10.52862549 C-19.47705078 10.2746582 -19.47705078 10.2746582 -21.47705078 8.2746582 C-21.60205078 5.6496582 -21.60205078 5.6496582 -21.47705078 3.2746582 C-20.74099609 3.22567383 -20.00494141 3.17668945 -19.24658203 3.1262207 C-18.27076172 3.05145508 -17.29494141 2.97668945 -16.28955078 2.8996582 C-15.32662109 2.83004883 -14.36369141 2.76043945 -13.37158203 2.6887207 C-10.50433188 2.40756204 -10.50433188 2.40756204 -8.13845825 1.26594543 C-5.23966823 0.18624097 -3.08356389 0.01512767 0 0 Z " fill="#DE8401" transform="translate(169.47705078125,160.725341796875)"/>
<path d="M0 0 C6.47786175 -0.02471596 12.95569606 -0.04286762 19.43359375 -0.05493164 C21.63737466 -0.05996088 23.84115222 -0.06678505 26.04492188 -0.07543945 C29.21224796 -0.0875666 32.37952994 -0.09324241 35.546875 -0.09765625 C36.53242371 -0.10281754 37.51797241 -0.10797882 38.53338623 -0.11329651 C39.91436493 -0.11340981 39.91436493 -0.11340981 41.32324219 -0.11352539 C42.53569611 -0.11685631 42.53569611 -0.11685631 43.77264404 -0.12025452 C45.97310595 -0.001452 47.88748207 0.39025102 50 1 C51.07494561 3.63850286 51.04348203 4.85896333 50.1940918 7.61401367 C47.5896379 10.44625223 46.96112361 10.38361679 43.25317383 10.56762695 C41.23761958 10.56683469 39.22195876 10.53854729 37.20703125 10.48828125 C35.61528328 10.47766914 35.61528328 10.47766914 33.99137878 10.46684265 C30.59770597 10.43882466 27.2056752 10.37606956 23.8125 10.3125 C21.51369568 10.28742684 19.21486553 10.26461197 16.91601562 10.24414062 C11.27670981 10.18897319 5.6386334 10.10264694 0 10 C0 6.7 0 3.4 0 0 Z " fill="#D98302" transform="translate(172,139)"/>
<path d="M0 0 C0.33 0 0.66 0 1 0 C1.33 35.64 1.66 71.28 2 108 C0 107 0 107 -1.11555481 104.53935242 C-2.23502991 100.05946271 -2.2284283 95.96670865 -2.15112305 91.37036133 C-2.14326782 90.41845413 -2.1354126 89.46654694 -2.12731934 88.48579407 C-2.09882736 85.35101338 -2.05555024 82.21663202 -2.01171875 79.08203125 C-1.98807491 76.90061745 -1.9652028 74.71919515 -1.94306946 72.5377655 C-1.8945982 67.97242399 -1.83924458 63.40723628 -1.77856445 58.84204102 C-1.70090741 52.98423349 -1.63658713 47.12637648 -1.57690716 41.26836109 C-1.53023793 36.76713726 -1.47846593 32.26598431 -1.42493629 27.76483727 C-1.39949253 25.60423777 -1.37519612 23.44362444 -1.3520565 21.28299904 C-1.31863083 18.26906456 -1.27880551 15.25528431 -1.23706055 12.24145508 C-1.22816299 11.3452948 -1.21926544 10.44913452 -1.21009827 9.52581787 C-1.19741913 8.70577774 -1.18473999 7.88573761 -1.17167664 7.04084778 C-1.16262645 6.32872037 -1.15357626 5.61659296 -1.14425182 4.88288593 C-1 3 -1 3 0 0 Z " fill="#4F7818" transform="translate(25,48)"/>
<path d="M0 0 C0.66 0.33 1.32 0.66 2 1 C2.09257494 13.20420055 2.16370148 25.40831793 2.20724869 37.61279774 C2.22814647 43.27950735 2.25650433 48.94597722 2.30175781 54.61254883 C2.34513705 60.07847648 2.36912059 65.54417316 2.37950897 71.01025963 C2.38691458 73.09834112 2.40137554 75.18640961 2.42292023 77.27439308 C2.4518487 80.19338176 2.45596041 83.11140922 2.45410156 86.03051758 C2.46848267 86.89870117 2.48286377 87.76688477 2.49768066 88.66137695 C2.45705348 94.53568837 2.45705348 94.53568837 -0.02838135 97.06059265 C-0.6790155 97.37059708 -1.32964966 97.6806015 -2 98 C-1.83734146 97.42167986 -1.67468292 96.84335972 -1.50709534 96.24751472 C-0.68045013 92.583712 -0.87943218 88.86972426 -0.90234375 85.13232422 C-0.90380402 84.23762421 -0.90526428 83.34292419 -0.9067688 82.42111206 C-0.91057114 80.48079755 -0.91668386 78.54048651 -0.92483521 76.60018539 C-0.93759078 73.53285783 -0.94411209 70.46557345 -0.94897461 67.39822388 C-0.96040489 60.8904632 -0.97965659 54.38273812 -1 47.875 C-1.02356367 40.32825096 -1.04396052 32.78152211 -1.05593872 25.23474503 C-1.06244187 22.20675208 -1.07494842 19.1788208 -1.08764648 16.15084839 C-1.09127739 14.30352839 -1.09462933 12.45620781 -1.09765625 10.60888672 C-1.10282257 9.76209351 -1.10798889 8.91530029 -1.11331177 8.04284668 C-1.11384342 2.22768684 -1.11384342 2.22768684 0 0 Z " fill="#483748" transform="translate(248,119)"/>
<path d="M0 0 C0.99 0.33 1.98 0.66 3 1 C3 1.66 3 2.32 3 3 C2.34 3 1.68 3 1 3 C1.00523682 3.6612085 1.01047363 4.32241699 1.01586914 5.00366211 C1.03657656 7.98159851 1.04964012 10.95951982 1.0625 13.9375 C1.07087891 14.97841797 1.07925781 16.01933594 1.08789062 17.09179688 C1.09111328 18.08115234 1.09433594 19.07050781 1.09765625 20.08984375 C1.10289307 21.00628662 1.10812988 21.92272949 1.11352539 22.86694336 C1 25 1 25 0 26 C-2.34152841 26.12484154 -4.65507585 26.18599291 -6.99829102 26.20532227 C-7.72995483 26.21522186 -8.46161865 26.22512146 -9.2154541 26.23532104 C-11.64490472 26.26702383 -14.07437493 26.29172793 -16.50390625 26.31640625 C-18.18400087 26.33696822 -19.86409023 26.35796448 -21.54417419 26.37937927 C-25.97467803 26.43467826 -30.40522915 26.48405287 -34.83581543 26.53222656 C-39.35347725 26.5823846 -43.87107008 26.63810033 -48.38867188 26.69335938 C-57.2590557 26.8010366 -66.12949932 26.90246018 -75 27 C-73.93437195 25.52128601 -73.93437195 25.52128601 -72 24 C-68.90583801 23.63923645 -68.90583801 23.63923645 -65.05004883 23.65942383 C-64.34735367 23.65898575 -63.64465851 23.65854767 -62.92066956 23.65809631 C-60.59917364 23.66018553 -58.27840091 23.68352181 -55.95703125 23.70703125 C-54.34706517 23.71262676 -52.73709398 23.71689707 -51.12712097 23.71989441 C-46.89045093 23.73134682 -42.6540896 23.76081721 -38.4175415 23.79400635 C-34.0941587 23.82469881 -29.77072599 23.83839797 -25.44726562 23.85351562 C-16.96468631 23.88568676 -8.48241713 23.93845774 0 24 C0 16.08 0 8.16 0 0 Z " fill="#214D21" transform="translate(113,24)"/>
<path d="M0 0 C0.99 0.99 0.99 0.99 2 2 C1.85744008 5.35015804 1.73255604 7.30083963 -0.74284363 9.66339111 C-3.37950663 11.22473052 -4.94229453 11.39876898 -7.98950195 11.44824219 C-8.98186356 11.47126404 -9.97422516 11.49428589 -10.99665833 11.51800537 C-12.06639389 11.52753235 -13.13612946 11.53705933 -14.23828125 11.546875 C-15.90772041 11.57735931 -15.90772041 11.57735931 -17.61088562 11.60845947 C-19.97200984 11.64868956 -22.33326352 11.6818472 -24.69458008 11.70849609 C-28.26102285 11.74940947 -31.82653551 11.81214958 -35.39257812 11.87890625 C-62.0573632 12.32313619 -62.0573632 12.32313619 -70 11 C-70.66 10.34 -71.32 9.68 -72 9 C-71.12525528 8.98969254 -70.25051056 8.97938507 -69.34925842 8.96876526 C-61.12317642 8.8709649 -52.89716928 8.76847587 -44.6712122 8.66066074 C-40.44172386 8.60539313 -36.21222867 8.55196715 -31.98266602 8.50268555 C-27.90425337 8.45509841 -23.82592738 8.40275792 -19.74761772 8.34705925 C-18.18824852 8.32661 -16.62885554 8.30790125 -15.06944466 8.29092598 C-12.8926441 8.26693856 -10.71600876 8.23687681 -8.53930664 8.20532227 C-7.29798477 8.18977798 -6.0566629 8.1742337 -4.77772522 8.15821838 C-2.09256784 8.31448486 -2.09256784 8.31448486 -1 7 C-0.63239269 4.67182036 -0.29758419 2.3381615 0 0 Z " fill="#2A5423" transform="translate(136,75)"/>
<path d="M0 0 C0.68368652 0.01256836 1.36737305 0.02513672 2.07177734 0.03808594 C13.20436908 0.312688 22.96053061 2.78528332 31 11 C31 11.99 31 12.98 31 14 C30.5875 13.61328125 30.175 13.2265625 29.75 12.828125 C28.88375 12.04695313 28.88375 12.04695313 28 11.25 C27.443125 10.73953125 26.88625 10.2290625 26.3125 9.703125 C19.25264196 4.50363495 13.45561264 3.42270398 4.75390625 3.57421875 C3.70218735 3.57750687 2.65046844 3.58079498 1.56687927 3.58418274 C-0.64094292 3.59455504 -2.84873893 3.61442169 -5.05639648 3.64331055 C-8.45115997 3.68767853 -11.84521581 3.70479515 -15.24023438 3.71679688 C-17.38803115 3.73020954 -19.53581916 3.74512934 -21.68359375 3.76171875 C-23.21311928 3.77279915 -23.21311928 3.77279915 -24.77354431 3.78410339 C-26.17619286 3.80335625 -26.17619286 3.80335625 -27.60717773 3.82299805 C-28.43354233 3.83284225 -29.25990692 3.84268646 -30.11131287 3.85282898 C-32.01173128 3.79505233 -32.01173128 3.79505233 -33 5 C-33.04080783 6.99958364 -33.04254356 9.00045254 -33 11 C-33.66 11 -34.32 11 -35 11 C-35.36627195 4.52919559 -35.36627195 4.52919559 -33.83203125 2.3125 C-26.3595835 -3.04089541 -9.13093041 -0.18390989 0 0 Z " fill="#1E4431" transform="translate(212,39)"/>
<path d="M0 0 C3.14958831 3.42346555 3.56179109 6.44262737 4 11 C5.953125 10.47916667 7.90625 9.95833333 9.859375 9.4375 C12 9 12 9 16 9 C15.41098397 12.67818675 14.39325878 15.52293739 12.63671875 18.80078125 C12.16169922 19.69603516 11.68667969 20.59128906 11.19726562 21.51367188 C10.69904297 22.43728516 10.20082031 23.36089844 9.6875 24.3125 C8.71156622 26.14156795 7.73629574 27.97099 6.76171875 29.80078125 C6.06054932 31.11296631 6.06054932 31.11296631 5.34521484 32.45166016 C3.50405391 35.93950732 1.74548741 39.46341862 0 43 C-1.32 43 -2.64 43 -4 43 C-5.31746333 40.41909233 -6.62909617 37.83549542 -7.9375 35.25 C-8.31068359 34.52039063 -8.68386719 33.79078125 -9.06835938 33.0390625 C-9.42607422 32.33007812 -9.78378906 31.62109375 -10.15234375 30.890625 C-10.48226318 30.24125977 -10.81218262 29.59189453 -11.15209961 28.92285156 C-12.01452116 26.96706921 -12.54374179 25.08459306 -13 23 C-12.34 23 -11.68 23 -11 23 C-9.66180502 25.6226232 -8.3292849 28.24786599 -7 30.875 C-6.6184375 31.62136719 -6.236875 32.36773437 -5.84375 33.13671875 C-5.4828125 33.85214844 -5.121875 34.56757812 -4.75 35.3046875 C-4.41484375 35.96452637 -4.0796875 36.62436523 -3.734375 37.30419922 C-3 39 -3 39 -3 41 C-0.02538154 38.43083412 1.41151075 35.52119106 3.13671875 32.01953125 C4.00200195 30.27446289 4.00200195 30.27446289 4.88476562 28.49414062 C5.4858083 27.26699134 6.08671809 26.03977697 6.6875 24.8125 C7.29957566 23.57329365 7.91219995 22.33435812 8.52539062 21.09570312 C10.02234925 18.06642464 11.51363642 15.03448743 13 12 C9.37 12.33 5.74 12.66 2 13 C0 4.5 0 4.5 0 0 Z " fill="#2A5025" transform="translate(246,56)"/>
<path d="M0 0 C1.485 0.99 1.485 0.99 3 2 C5.22672143 2.12166331 7.45748992 2.17544589 9.6875 2.1875 C16.1513713 2.52241561 19.28904048 3.87375129 23.7421875 8.50390625 C24.15726563 8.99761719 24.57234375 9.49132812 25 10 C23.140625 10.6171875 23.140625 10.6171875 21 11 C18.75 9.125 18.75 9.125 17 7 C17 6.67 17 6.34 17 6 C16.10796875 5.96261719 15.2159375 5.92523438 14.296875 5.88671875 C13.12640625 5.82097656 11.9559375 5.75523437 10.75 5.6875 C9.00976562 5.60048828 9.00976562 5.60048828 7.234375 5.51171875 C3.88249558 4.98140932 2.37561764 4.38149788 0 2 C0 1.34 0 0.68 0 0 Z " fill="#344120" transform="translate(123,215)"/>
<path d="M0 0 C2.50037734 2.17424117 3.43628586 3.73045798 4 7 C1.03 6.505 1.03 6.505 -2 6 C-2.268125 6.86625 -2.53625 7.7325 -2.8125 8.625 C-3.97111987 11.91791964 -5.38209839 14.91127875 -7 18 C-7.66 18 -8.32 18 -9 18 C-7.25577498 12.1330613 -4.87278901 6.4048947 -2 1 C-1.34 0.67 -0.68 0.34 0 0 Z " fill="#765C15" transform="translate(38,169)"/>
<path d="M0 0 C1.5 1.25 1.5 1.25 3 3 C3 4.32 3 5.64 3 7 C-0.74787912 6.49547781 -4.32636934 5.91840767 -8 5 C-7.01 7.97 -6.02 10.94 -5 14 C-9.92307692 9.81538462 -9.92307692 9.81538462 -10.3125 5.6875 C-10.209375 4.800625 -10.10625 3.91375 -10 3 C-6.7 3.33 -3.4 3.66 0 4 C0 2.68 0 1.36 0 0 Z " fill="#3C402D" transform="translate(53,197)"/>
<path d="M0 0 C0.33 0.66 0.66 1.32 1 2 C2.0209375 1.505 2.0209375 1.505 3.0625 1 C6.50840238 -0.17307315 9.38397422 -0.14180493 13 0 C13 1.98 13 3.96 13 6 C12.34 4.68 11.68 3.36 11 2 C9.7625 2.33 8.525 2.66 7.25 3 C4.25408155 3.79891159 2.19892281 4 -1 4 C-0.67 2.68 -0.34 1.36 0 0 Z " fill="#393E24" transform="translate(21,200)"/>
<path d="M0 0 C0.99 0.33 1.98 0.66 3 1 C3 1.66 3 2.32 3 3 C2.34 3 1.68 3 1 3 C1 10.26 1 17.52 1 25 C0.67 25 0.34 25 0 25 C0 16.75 0 8.5 0 0 Z " fill="#265023" transform="translate(113,24)"/>
<path d="M0 0 C7 8.20689655 7 8.20689655 7 13 C6.34 13 5.68 13 5 13 C4.15615325 11.58957044 3.32530504 10.17135868 2.5 8.75 C2.0359375 7.96109375 1.571875 7.1721875 1.09375 6.359375 C0 4 0 4 0 0 Z " fill="#464429" transform="translate(42,176)"/>
<path d="M0 0 C2.5 1.1875 2.5 1.1875 5 3 C5.3125 5.6875 5.3125 5.6875 5 8 C4.34 7.67 3.68 7.34 3 7 C3 6.34 3 5.68 3 5 C2.34 5 1.68 5 1 5 C0.67 3.35 0.34 1.7 0 0 Z " fill="#715323" transform="translate(36,211)"/>
<path d="M0 0 C2.3125 -0.25 2.3125 -0.25 5 0 C6.8125 2 6.8125 2 8 4 C5.6875 4.25 5.6875 4.25 3 4 C1.1875 2 1.1875 2 0 0 Z " fill="#8C6214" transform="translate(140,222)"/>
<path d="M0 0 C0.99 0.33 1.98 0.66 3 1 C2.67 2.98 2.34 4.96 2 7 C1.01 6.67 0.02 6.34 -1 6 C-1.042721 4.33388095 -1.04063832 2.66617115 -1 1 C-0.67 0.67 -0.34 0.34 0 0 Z " fill="#83AD09" transform="translate(179,43)"/>
</svg>
